<?xml version="1.0" standalone="no"?><!DOCTYPE svg PUBLIC "-//W3C//DTD SVG 1.1//EN" "http://www.w3.org/Graphics/SVG/1.1/DTD/svg11.dtd"><svg t="1487727487477" class="icon" style="" viewBox="0 0 1024 1024" version="1.1" xmlns="http://www.w3.org/2000/svg" p-id="2496" xmlns:xlink="http://www.w3.org/1999/xlink" width="200" height="200"><defs><style type="text/css"></style></defs><path d="M793.6 972.8l-563.2 0c-113.1008 0-204.8-91.6992-204.8-204.8L25.6 256c0-113.1008 91.6992-204.8 204.8-204.8l563.2 0c113.1008 0 204.8 91.6992 204.8 204.8l0 512C998.4 881.1008 906.7008 972.8 793.6 972.8zM947.2 286.72c0-101.7856-82.5344-184.32-184.32-184.32L261.12 102.4C159.3344 102.4 76.8 184.9344 76.8 286.72l0 450.56c0 101.7856 82.5344 184.32 184.32 184.32l501.76 0c101.7856 0 184.32-82.5344 184.32-184.32L947.2 286.72zM691.2 614.4l-102.4 0 0 102.4c0 28.2624-22.9376 51.2-51.2 51.2l-51.2 0c-28.2624 0-51.2-22.9376-51.2-51.2l0-102.4-102.4 0c-28.2624 0-51.2-22.9376-51.2-51.2l0-51.2c0-28.2624 22.9376-51.2 51.2-51.2l102.4 0L435.2 358.4c0-28.2624 22.9376-51.2 51.2-51.2l51.2 0c28.2624 0 51.2 22.9376 51.2 51.2l0 102.4 102.4 0c28.2624 0 51.2 22.9376 51.2 51.2l0 51.2C742.4 591.4624 719.4624 614.4 691.2 614.4z" p-id="2497" fill="#ffffff"></path></svg>