<?xml version="1.0" standalone="no"?><!DOCTYPE svg PUBLIC "-//W3C//DTD SVG 1.1//EN" "http://www.w3.org/Graphics/SVG/1.1/DTD/svg11.dtd"><svg t="1487727605432" class="icon" style="" viewBox="0 0 1024 1024" version="1.1" xmlns="http://www.w3.org/2000/svg" p-id="3332" xmlns:xlink="http://www.w3.org/1999/xlink" width="200" height="200"><defs><style type="text/css"></style></defs><path d="M616.489796 919.510204H407.510204c-11.493878 0-20.897959 9.404082-20.897959 20.897959s9.404082 20.897959 20.897959 20.897959h208.979592c11.493878 0 20.897959-9.404082 20.897959-20.897959s-9.404082-20.897959-20.897959-20.897959zM585.142857 982.204082H438.857143c-11.493878 0-20.897959 9.404082-20.897959 20.897959s9.404082 20.897959 20.897959 20.897959h146.285714c11.493878 0 20.897959-9.404082 20.897959-20.897959s-9.404082-20.897959-20.897959-20.897959zM135.836735 449.306122H52.244898c-11.493878 0-20.897959 9.404082-20.897959 20.89796s9.404082 20.897959 20.897959 20.897959h83.591837c11.493878 0 20.897959-9.404082 20.897959-20.897959s-9.404082-20.897959-20.897959-20.89796zM971.755102 449.306122h-83.591837c-11.493878 0-20.897959 9.404082-20.897959 20.89796s9.404082 20.897959 20.897959 20.897959h83.591837c11.493878 0 20.897959-9.404082 20.897959-20.897959s-9.404082-20.897959-20.897959-20.89796zM213.159184 737.697959l-40.751021 40.751021c-8.359184 8.359184-8.359184 21.942857 0 30.30204 8.359184 8.359184 21.942857 8.359184 30.302041 0l40.75102-40.75102c8.359184-8.359184 8.359184-21.942857 0-30.302041-7.314286-8.359184-20.897959-8.359184-30.30204 0zM820.244898 131.657143l-40.75102 40.75102c-8.359184 8.359184-8.359184 21.942857 0 30.302041 8.359184 8.359184 21.942857 8.359184 30.30204 0l40.751021-40.75102c8.359184-8.359184 8.359184-21.942857 0-30.302041-8.359184-8.359184-21.942857-8.359184-30.302041 0zM214.204082 202.710204c8.359184 8.359184 21.942857 8.359184 30.30204 0 8.359184-8.359184 8.359184-21.942857 0-30.302041l-40.75102-40.75102c-8.359184-8.359184-21.942857-8.359184-30.302041 0-8.359184 8.359184-8.359184 21.942857 0 30.302041l40.751021 40.75102zM809.795918 737.697959c-8.359184-8.359184-21.942857-8.359184-30.30204 0-8.359184 8.359184-8.359184 21.942857 0 30.302041l40.75102 40.75102c8.359184 8.359184 21.942857 8.359184 30.302041 0 8.359184-8.359184 8.359184-21.942857 0-30.30204l-40.751021-40.751021zM512 125.387755c11.493878 0 20.897959-9.404082 20.897959-20.897959V20.897959c0-11.493878-9.404082-20.897959-20.897959-20.897959s-20.897959 9.404082-20.897959 20.897959v83.591837c0 11.493878 9.404082 20.897959 20.897959 20.897959zM512 167.183673c-173.453061 0-313.469388 140.016327-313.469388 313.469388 0 111.804082 58.514286 210.02449 146.285715 265.404082V856.816327c0 22.987755 18.808163 41.795918 41.795918 41.795918h250.77551c22.987755 0 41.795918-18.808163 41.795918-41.795918V746.057143c87.771429-55.379592 146.285714-153.6 146.285715-265.404082 0-173.453061-140.016327-313.469388-313.469388-313.469388z m145.240816 543.346939c-12.538776 7.314286-19.853061 20.897959-19.853061 35.526531V856.816327H532.897959V676.04898l99.265306-98.220409c7.314286-7.314286 7.314286-19.853061 0-28.212244-7.314286-7.314286-20.897959-7.314286-28.212245 0L512 640.522449l-91.95102-90.906122c-7.314286-7.314286-20.897959-7.314286-28.212245 0-7.314286 7.314286-7.314286 19.853061 0 28.212244l99.265306 98.220409V856.816327H386.612245V746.057143c0-14.628571-7.314286-27.167347-19.853061-35.526531C287.346939 660.37551 240.326531 574.693878 240.326531 480.653061c0-149.420408 122.253061-271.673469 271.673469-271.673469s271.673469 122.253061 271.673469 271.673469c0 94.040816-47.020408 179.722449-126.432653 229.877551z" fill="#ffffff" p-id="3333"></path></svg>